<svg id="Layer_1" data-name="Layer 1"
  xmlns="http://www.w3.org/2000/svg"
  xmlns:xlink="http://www.w3.org/1999/xlink" viewBox="0 0 632 164" style="width:100%; max-height:80px;">
  <defs>
    <style>.cls-1{fill:none;}.cls-2{clip-path:url(#clip-path);}.cls-3{fill:#dee5ed;}.cls-4{fill:#ffc800;}</style>
    <clipPath id="clip-path">
      <rect class="cls-1" x="1.56" y="0.75" width="382.39" height="162.5"/>
    </clipPath>
  </defs>
  <title>KinesisWallet</title>
  <g class="cls-2">
    <polygon class="cls-3" points="22.9 0.75 22.9 109.9 8.55 124.07 9.23 124.75 36.15 97.83 36.15 97.15 36.15 96.81 36.15 0.75 22.9 0.75 22.9 0.75"/>
    <polygon class="cls-3" points="50.14 105.58 49.46 104.9 22.9 132.02 22.9 132.68 22.9 132.78 22.9 163.25 36.15 163.25 36.15 119.55 50.14 105.58 50.14 105.58"/>
    <polygon class="cls-4" points="101.16 81.69 111.23 71.62 182.09 0.75 202.75 0.75 202.75 1.49 121.93 82.31 202.75 163.14 202.75 163.25 181.47 163.25 100.53 82.31 101.16 81.69 101.16 81.69"/>
    <polygon class="cls-4" points="51.23 81.69 61.3 71.62 132.16 0.75 153.56 0.75 72 82.31 152.93 163.25 131.53 163.25 50.6 82.31 51.23 81.69 51.23 81.69"/>
  </g>
  <path class="cls-3" d="M6,130.35a2.84,2.84,0,1,1,2.84-2.84A2.84,2.84,0,0,1,6,130.35ZM6,123a4.47,4.47,0,1,0,4.47,4.47A4.47,4.47,0,0,0,6,123Z"/>
  <path class="cls-3" d="M52.85,105.14a2.84,2.84,0,1,1,2.84-2.84,2.84,2.84,0,0,1-2.84,2.84Zm0-7.3a4.46,4.46,0,1,0,4.46,4.46,4.45,4.45,0,0,0-4.46-4.46Z"/>
  <path id="Combined-Shape" class="cls-3" d="M185,82.2l-3.45,4V96.83h-2.33V67.17h2.33V83l3.27-4.08L194,67.17h2.93l-10.39,13.2,11.18,16.46h-2.84Zm30.19,14.63V67.17h2.34V96.83Zm41.09,0H253.9L239.85,71.57V96.83H237.5V67.17h2.35l14.07,25.3V67.17h2.31Zm33.53-14.2H278.2v12h13.29v2.16H275.87V67.17h15.52v2.2H278.2v11.1h11.56Zm33.48,6.91a5.32,5.32,0,0,0-1.42-3.91,14.18,14.18,0,0,0-5.31-2.73A16.78,16.78,0,0,1,310.8,80a7,7,0,0,1-2.39-5.54,7.19,7.19,0,0,1,2.35-5.54,8.73,8.73,0,0,1,6.08-2.14,8.27,8.27,0,0,1,6.21,2.49,8.8,8.8,0,0,1,2.41,6.4h-2.35a6.9,6.9,0,0,0-1.68-4.84A5.93,5.93,0,0,0,316.84,69a6.25,6.25,0,0,0-4.45,1.52,5.14,5.14,0,0,0-1.63,3.92,4.79,4.79,0,0,0,1.54,3.67,13.42,13.42,0,0,0,4.89,2.54,20.38,20.38,0,0,1,5.07,2.3,7.53,7.53,0,0,1,2.53,2.8,8.18,8.18,0,0,1,.82,3.79,7.21,7.21,0,0,1-2.36,5.61A9,9,0,0,1,317,97.24a10.65,10.65,0,0,1-4.78-1.07,8.1,8.1,0,0,1-3.37-3.08,9,9,0,0,1-1.22-4.73H310a6.45,6.45,0,0,0,1.9,4.93A7.2,7.2,0,0,0,317,95.08a6.63,6.63,0,0,0,4.53-1.51A5.1,5.1,0,0,0,323.24,89.54Zm20.66,7.29V67.17h2.33V96.83Zm36.34-7.29a5.28,5.28,0,0,0-1.42-3.91,14.11,14.11,0,0,0-5.3-2.73A16.58,16.58,0,0,1,367.81,80a7,7,0,0,1-2.39-5.54,7.15,7.15,0,0,1,2.35-5.54,8.7,8.7,0,0,1,6.07-2.14,8.28,8.28,0,0,1,6.22,2.49,8.8,8.8,0,0,1,2.41,6.4h-2.35a6.86,6.86,0,0,0-1.69-4.84A5.9,5.9,0,0,0,373.84,69a6.29,6.29,0,0,0-4.45,1.52,5.13,5.13,0,0,0-1.62,3.92,4.78,4.78,0,0,0,1.53,3.67,13.51,13.51,0,0,0,4.89,2.54,20,20,0,0,1,5.07,2.3,7.56,7.56,0,0,1,2.54,2.8,8.31,8.31,0,0,1,.81,3.79,7.17,7.17,0,0,1-2.36,5.61A9,9,0,0,1,374,97.24a10.65,10.65,0,0,1-4.78-1.07,8,8,0,0,1-3.37-3.08,9,9,0,0,1-1.22-4.73H367a6.49,6.49,0,0,0,1.9,4.93A7.21,7.21,0,0,0,374,95.08a6.63,6.63,0,0,0,4.53-1.51A5.13,5.13,0,0,0,380.24,89.54Z"/>
  <path class="cls-4" d="M463.14,66.52l-7.27,30.4h-9.11L441.9,76.58,437,96.92h-9.12l-7.27-30.4h8l3.92,22,5.33-22h8l5.33,22,4-22Z"/>
  <path class="cls-4" d="M495.05,91.37h-11.4l-1.89,5.55H474l11.14-30.19h8.47l11.13,30.19h-7.82Zm-1.9-5.59L489.37,74.6l-3.83,11.18Z"/>
  <path class="cls-4" d="M524.16,91.29H534v5.63H516.8V66.52h7.36Z"/>
  <path class="cls-4" d="M553.91,91.29h9.81v5.63H546.56V66.52h7.35Z"/>
  <path class="cls-4" d="M583.67,72.37v6.36H594v5.55H583.67V91h11.57v5.89H576.32V66.52h18.92v5.85Z"/>
  <path class="cls-4" d="M630.45,66.52v5.85H622.2V96.92h-7.4V72.37h-8.17V66.52Z"/>
</svg>
