<svg id="Layer_1" data-name="Layer 1" xmlns="http://www.w3.org/2000/svg" xmlns:xlink="http://www.w3.org/1999/xlink" viewBox="0 0 96 86"><defs><style>.cls-1{fill:#fff;}.cls-2{fill:#1f2d3b;}.cls-3{mask:url(#mask);}.cls-4{fill:#dee5ed;}.cls-5{mask:url(#mask-2-2);}.cls-6{mask:url(#mask-3);}.cls-7{mask:url(#mask-4-2);}.cls-8{fill:#ffc800;opacity:0.6;}.cls-9{fill:#2b3e50;}</style><mask id="mask" x="10" y="1.26" width="72.62" height="59" maskUnits="userSpaceOnUse"><g id="mask-2"><path id="path-1" class="cls-1" d="M45.67,30.59,49.26,27,74.52,1.53h7.36V1.8l-28.81,29,28.81,29v0H74.3l-28.86-29Zm-17.8,0L31.46,27,56.72,1.53h7.63L35.28,30.82,64.12,59.87H56.5l-28.85-29Z"/></g></mask><mask id="mask-2-2" x="10" y="1.26" width="72.62" height="59" maskUnits="userSpaceOnUse"><g id="mask-4"><path id="path-3" class="cls-1" d="M22.5,44.19V59.87H17.77V48.66l9.47-9.73.24.24Zm0-8v.25l-9.6,9.66-.24-.24,5.11-5.09V1.53H22.5Z"/></g></mask><mask id="mask-3" x="26.68" y="36.07" width="3.49" height="3.51" maskUnits="userSpaceOnUse"><g id="mask-6"><path id="path-5" class="cls-1" d="M28.42,36.07a1.74,1.74,0,0,1,1.74,1.75v0a1.74,1.74,0,1,1-3.48,0v0A1.74,1.74,0,0,1,28.42,36.07Zm0,.46a1.29,1.29,0,0,0-1.29,1.29v0a1.29,1.29,0,1,0,2.58,0v0A1.29,1.29,0,0,0,28.42,36.53Z"/></g></mask><mask id="mask-4-2" x="10" y="45.24" width="3.49" height="3.51" maskUnits="userSpaceOnUse"><g id="mask-8"><path id="path-7" class="cls-1" d="M11.74,45.24A1.74,1.74,0,0,1,13.49,47v0A1.75,1.75,0,1,1,10,47v0A1.74,1.74,0,0,1,11.74,45.24Zm0,.45A1.29,1.29,0,0,0,10.45,47v0A1.29,1.29,0,0,0,13,47v0A1.29,1.29,0,0,0,11.74,45.69Z"/></g></mask></defs><title>Kinesis_Alpha</title><g id="Atoms-_-Molecules" data-name="Atoms-&amp;-Molecules"><g id="Logo"><g id="Styles-_Logo_Kinesis_Medium" data-name="Styles-/Logo/Kinesis/Medium"><g id="Kinesis-Logo"><g id="K2"><g id="Mask-5" data-name="Mask"><path id="path-1-2" data-name="path-1" class="cls-2" d="M45.67,30.59,49.26,27,74.52,1.53h7.36V1.8l-28.81,29,28.81,29v0H74.3l-28.86-29Zm-17.8,0L31.46,27,56.72,1.53h7.63L35.28,30.82,64.12,59.87H56.5l-28.85-29Z"/></g><g class="cls-3"><g id="Styles-_-Colour-_-Primary-_-Light" data-name="Styles-/-Colour-/-Primary-/-Light"><g id="Container"><rect class="cls-4" x="10" y="1.26" width="72.62" height="59"/></g></g></g></g><g id="K1"><g id="Mask-6-2" data-name="Mask"><path id="path-3-2" data-name="path-3" class="cls-2" d="M22.5,44.19V59.87H17.77V48.66l9.47-9.73.24.24Zm0-8v.25l-9.6,9.66-.24-.24,5.11-5.09V1.53H22.5Z"/></g><g class="cls-5"><g id="Styles-_-Colour-_-Primary-_-Light-2" data-name="Styles-/-Colour-/-Primary-/-Light"><g id="Container-2" data-name="Container"><rect class="cls-4" x="10" y="1.26" width="72.62" height="59"/></g></g></g></g><g id="circle2"><g class="cls-6"><g id="Styles-_-Colour-_-Primary-_-Light-3" data-name="Styles-/-Colour-/-Primary-/-Light"><rect id="Container-3" data-name="Container" class="cls-4" x="26.68" y="36.07" width="3.4" height="3.4"/></g></g></g><g id="circle1"><g class="cls-7"><g id="Styles-_-Colour-_-Primary-_-Light-4" data-name="Styles-/-Colour-/-Primary-/-Light"><rect id="Container-4" data-name="Container" class="cls-4" x="10" y="45.24" width="3.4" height="3.4"/></g></g></g></g></g></g></g><rect class="cls-8" x="0.5" y="63.67" width="95" height="21.65" rx="10.83" ry="10.83"/><path class="cls-9" d="M13.37,78.31a3.89,3.89,0,0,1-.16-1,2.88,2.88,0,0,1-1.09.86,3.36,3.36,0,0,1-1.4.3A2.49,2.49,0,0,1,9,77.85a1.91,1.91,0,0,1-.66-1.49,2,2,0,0,1,.9-1.7A4.24,4.24,0,0,1,11.73,74H13.2V73.2A1.65,1.65,0,0,0,12.72,72a2,2,0,0,0-1.42-.45,2.24,2.24,0,0,0-1.41.44,1.29,1.29,0,0,0-.55,1H8.52a1.88,1.88,0,0,1,.82-1.52,3.11,3.11,0,0,1,2-.64,2.86,2.86,0,0,1,1.94.61A2.17,2.17,0,0,1,14,73.15v3.48a4.24,4.24,0,0,0,.23,1.59v.09Zm-2.56-.59a2.77,2.77,0,0,0,1.46-.39,2.32,2.32,0,0,0,.93-1.06V74.66H11.75a3.61,3.61,0,0,0-1.9.44,1.34,1.34,0,0,0-.69,1.19,1.29,1.29,0,0,0,.46,1A1.67,1.67,0,0,0,10.81,77.72Z"/><path class="cls-9" d="M17.09,78.31h-.81V67.87h.81Z"/><path class="cls-9" d="M25.21,74.7a4.4,4.4,0,0,1-.76,2.73,2.41,2.41,0,0,1-2,1,2.73,2.73,0,0,1-2.31-1.06v3.75h-.81V71h.76l0,1a2.61,2.61,0,0,1,2.3-1.17,2.44,2.44,0,0,1,2.07,1,4.51,4.51,0,0,1,.75,2.77Zm-.81-.14a3.8,3.8,0,0,0-.58-2.22,1.88,1.88,0,0,0-1.61-.82,2.27,2.27,0,0,0-1.29.36,2.31,2.31,0,0,0-.82,1.05v3.53a2.2,2.2,0,0,0,.84,1,2.42,2.42,0,0,0,1.28.34,1.85,1.85,0,0,0,1.6-.82A4.08,4.08,0,0,0,24.4,74.56Z"/><path class="cls-9" d="M27.82,72.2a2.87,2.87,0,0,1,1-1,2.69,2.69,0,0,1,1.36-.36,2.21,2.21,0,0,1,1.76.66,3,3,0,0,1,.59,2v4.83h-.81V73.47A2.17,2.17,0,0,0,31.33,72,1.6,1.6,0,0,0,30,71.52a2,2,0,0,0-1.34.48,2.76,2.76,0,0,0-.86,1.27v5H27V67.87h.81Z"/><path class="cls-9" d="M39.29,78.31a4,4,0,0,1-.15-1,2.88,2.88,0,0,1-1.09.86,3.37,3.37,0,0,1-1.41.3,2.47,2.47,0,0,1-1.71-.59,1.91,1.91,0,0,1-.66-1.49,2,2,0,0,1,.9-1.7A4.24,4.24,0,0,1,37.66,74h1.47V73.2A1.65,1.65,0,0,0,38.65,72a2,2,0,0,0-1.42-.45,2.22,2.22,0,0,0-1.41.44,1.3,1.3,0,0,0-.56,1h-.81a1.89,1.89,0,0,1,.81-1.52,3.16,3.16,0,0,1,2-.64,2.86,2.86,0,0,1,1.94.61,2.21,2.21,0,0,1,.73,1.72v3.48a4.27,4.27,0,0,0,.22,1.59v.09Zm-2.55-.59a2.77,2.77,0,0,0,1.46-.39,2.38,2.38,0,0,0,.93-1.06V74.66H37.68a3.67,3.67,0,0,0-1.91.44,1.35,1.35,0,0,0-.68,1.19,1.29,1.29,0,0,0,.46,1A1.67,1.67,0,0,0,36.74,77.72Z"/><path class="cls-9" d="M48.89,71.65a2.45,2.45,0,0,0-.55-.05,2,2,0,0,0-1.29.42,2.38,2.38,0,0,0-.75,1.24v5h-.81V71h.8v1.17a2.16,2.16,0,0,1,2.07-1.3,1.54,1.54,0,0,1,.54.08Z"/><path class="cls-9" d="M52.89,78.44A3.14,3.14,0,0,1,50,76.69a4,4,0,0,1-.42-1.85v-.29A4.22,4.22,0,0,1,50,72.64a3.25,3.25,0,0,1,1.14-1.34,2.85,2.85,0,0,1,1.59-.48,2.66,2.66,0,0,1,2.13.91,3.72,3.72,0,0,1,.78,2.5v.45H50.41v.16a3.05,3.05,0,0,0,.71,2.08,2.28,2.28,0,0,0,1.81.84,2.63,2.63,0,0,0,1.15-.24,2.66,2.66,0,0,0,.91-.76l.51.38A3,3,0,0,1,52.89,78.44Zm-.15-6.93a2,2,0,0,0-1.54.67A3.1,3.1,0,0,0,50.43,74h4.41V73.9a2.67,2.67,0,0,0-.6-1.72A1.86,1.86,0,0,0,52.74,71.51Z"/><path class="cls-9" d="M58.15,78.31h-.82V67.87h.82Z"/><path class="cls-9" d="M63.2,78.44a3.14,3.14,0,0,1-2.87-1.75,4,4,0,0,1-.42-1.85v-.29a4.22,4.22,0,0,1,.41-1.91,3.25,3.25,0,0,1,1.14-1.34,2.85,2.85,0,0,1,1.59-.48,2.66,2.66,0,0,1,2.13.91,3.72,3.72,0,0,1,.78,2.5v.45H60.72v.16a3.05,3.05,0,0,0,.71,2.08,2.28,2.28,0,0,0,1.81.84,2.63,2.63,0,0,0,1.15-.24,2.66,2.66,0,0,0,.91-.76l.51.38A3,3,0,0,1,63.2,78.44Zm-.15-6.93a2,2,0,0,0-1.54.67A3.1,3.1,0,0,0,60.74,74h4.41V73.9a2.67,2.67,0,0,0-.6-1.72A1.86,1.86,0,0,0,63.05,71.51Z"/><path class="cls-9" d="M72.19,78.31a3.89,3.89,0,0,1-.16-1,2.81,2.81,0,0,1-1.09.86,3.36,3.36,0,0,1-1.4.3,2.49,2.49,0,0,1-1.72-.59,1.9,1.9,0,0,1-.65-1.49,1.94,1.94,0,0,1,.89-1.7A4.26,4.26,0,0,1,70.55,74H72V73.2A1.65,1.65,0,0,0,71.54,72a2,2,0,0,0-1.42-.45,2.26,2.26,0,0,0-1.41.44,1.29,1.29,0,0,0-.55,1h-.82a1.88,1.88,0,0,1,.82-1.52,3.11,3.11,0,0,1,2-.64,2.86,2.86,0,0,1,1.94.61,2.17,2.17,0,0,1,.73,1.72v3.48a4.24,4.24,0,0,0,.23,1.59v.09Zm-2.56-.59a2.75,2.75,0,0,0,1.46-.39A2.32,2.32,0,0,0,72,76.27V74.66H70.57a3.61,3.61,0,0,0-1.9.44A1.34,1.34,0,0,0,68,76.29a1.29,1.29,0,0,0,.46,1A1.69,1.69,0,0,0,69.63,77.72Z"/><path class="cls-9" d="M79.41,76.44a1.15,1.15,0,0,0-.49-1,3.65,3.65,0,0,0-1.47-.58,7.16,7.16,0,0,1-1.51-.47,2.1,2.1,0,0,1-.81-.66,1.67,1.67,0,0,1-.26-.94,1.75,1.75,0,0,1,.73-1.44,3,3,0,0,1,1.86-.56,3.08,3.08,0,0,1,2,.6A2,2,0,0,1,80.18,73h-.82a1.3,1.3,0,0,0-.54-1.07,2.09,2.09,0,0,0-1.36-.43,2.14,2.14,0,0,0-1.29.36,1.08,1.08,0,0,0-.48.92,1,1,0,0,0,.4.86,4.36,4.36,0,0,0,1.48.55,7.14,7.14,0,0,1,1.6.54,2.07,2.07,0,0,1,.79.68,1.81,1.81,0,0,1,.26,1,1.75,1.75,0,0,1-.75,1.48,3.14,3.14,0,0,1-2,.56,3.3,3.3,0,0,1-2.08-.62,1.89,1.89,0,0,1-.8-1.57h.81a1.45,1.45,0,0,0,.6,1.11,2.51,2.51,0,0,0,1.47.4,2.29,2.29,0,0,0,1.37-.38A1.12,1.12,0,0,0,79.41,76.44Z"/><path class="cls-9" d="M84.9,78.44A3.14,3.14,0,0,1,82,76.69a4,4,0,0,1-.42-1.85v-.29A4.36,4.36,0,0,1,82,72.64a3.35,3.35,0,0,1,1.15-1.34,2.85,2.85,0,0,1,1.59-.48,2.64,2.64,0,0,1,2.12.91,3.73,3.73,0,0,1,.79,2.5v.45H82.41v.16a3.06,3.06,0,0,0,.72,2.08,2.26,2.26,0,0,0,1.8.84,2.6,2.6,0,0,0,1.15-.24,2.49,2.49,0,0,0,.91-.76l.51.38A3,3,0,0,1,84.9,78.44Zm-.15-6.93a2,2,0,0,0-1.55.67A3.1,3.1,0,0,0,82.44,74h4.41V73.9a2.73,2.73,0,0,0-.61-1.72A1.86,1.86,0,0,0,84.75,71.51Z"/></svg>