<?xml version="1.0" encoding="UTF-8"?>
<svg width="280px" height="161px" viewBox="0 0 623 161" version="1.1" xmlns="http://www.w3.org/2000/svg" xmlns:xlink="http://www.w3.org/1999/xlink">
    <title>Kinesis-LDNS-Wallet</title>
    <defs>
        <polygon id="path-1" points="0.0282047424 0.20207666 47.636778 0.20207666 47.636778 73.4690543 0.0282047424 73.4690543"></polygon>
    </defs>
    <g id="Logos" stroke="none" stroke-width="1" fill="none" fill-rule="evenodd">
        <g transform="translate(-489.000000, -1476.000000)" id="Kinesis-LDNS-Wallet">
            <g transform="translate(489.000000, 1476.000000)">
                <polygon id="Fill-1" fill="#FCBD1B" points="241.604403 115.792678 214.09446 89.6723348 214.09446 115.792678 198.440828 115.792678 198.440828 44.4707956 214.09618 44.4707956 214.09618 71.3306533 239.661027 44.4707956 259.574607 44.4707956 224.284283 80.1325967 262.537825 115.792678"></polygon>
                <polygon id="Fill-2" fill="#FCBD1B" points="293.05398 44.4713116 293.05226 115.793194 277.398628 115.793194 277.400348 44.4713116"></polygon>
                <polygon id="Fill-3" fill="#FCBD1B" points="332.327192 77.3523658 332.327192 115.793366 316.67184 115.793366 316.67356 42.3406497 362.337726 83.6502784 362.339446 44.4714835 377.993078 44.4714835 377.991358 118.663714"></polygon>
                <polygon id="Fill-4" fill="#FCBD1B" points="442.554077 87.3571383 417.267838 87.3571383 417.267838 101.437152 447.183782 101.437152 447.183782 115.792334 401.612486 115.792334 401.614206 44.4704517 447.183782 44.4704517 447.183782 58.8273534 417.267838 58.8273534 417.267838 72.9985167 442.554077 72.9985167"></polygon>
                <g id="Group-18" transform="translate(0.000000, 0.254015)">
                    <path d="M468.026915,107.572715 L476.177054,96.2736204 C483.31079,101.274803 487.20098,102.016037 491.553798,102.016037 C496.370961,102.016037 500.168283,100.162091 500.168283,95.3466475 C500.168283,83.9529634 469.230776,86.7321624 469.232496,63.8536449 C469.232496,47.8285358 481.179956,43.1971107 491.369779,43.1971107 C499.612787,43.1971107 507.511834,46.5524432 514.062558,52.0902036 L505.910699,63.3910183 C499.396092,58.5428983 495.443988,57.6486016 491.369779,57.6486016 C487.386719,57.6486016 484.700389,59.4406346 484.700389,62.9490294 C484.700389,67.3431219 490.258787,69.9658189 494.332997,71.4482877 C504.52282,75.1527399 515.637896,81.1737644 515.637896,95.3466475 C515.637896,110.025152 504.706838,116.464088 491.553798,116.464088 C483.773416,116.464088 476.306039,113.722725 468.026915,107.572715" id="Fill-5" fill="#FCBD1B"></path>
                    <g id="Group-9" transform="translate(574.176323, 42.995034)">
                        <mask id="mask-2" fill="white">
                            <use xlink:href="#path-1"></use>
                        </mask>
                        <g id="Clip-8"></g>
                        <path d="M0.0282047424,64.5776813 L8.1783434,53.2785863 C15.3120795,58.2797687 19.2005503,59.0210031 23.5550874,59.0210031 C28.372251,59.0210031 32.1678526,57.1670572 32.1678526,52.3516134 C32.1695724,40.9579294 1.2320657,43.7371284 1.2320657,20.8586108 C1.2320657,4.83350173 13.1812456,0.20207666 23.3710686,0.20207666 C31.6140766,0.20207666 39.5114044,3.55740912 46.0638476,9.09516951 L37.9119892,20.3959843 C31.3956618,15.5478642 27.4452781,14.6535675 23.3710686,14.6535675 C19.3880087,14.6535675 16.701679,16.4456005 16.701679,19.9539953 C16.701679,24.3480878 22.2583572,26.9707849 26.3342864,28.4532536 C36.5241095,32.1577058 47.6374659,38.1787304 47.6374659,52.3516134 C47.6374659,67.030118 36.7081282,73.4690543 23.5550874,73.4690543 C15.7729862,73.4690543 8.3073285,70.727691 0.0282047424,64.5776813" id="Fill-7" fill="#FCBD1B" mask="url(#mask-2)"></path>
                    </g>
                    <polygon id="Fill-10" fill="#FCBD1B" points="553.523228 44.2172969 553.521508 115.539179 537.866156 115.539179 537.867876 44.2172969"></polygon>
                    <polygon id="Fill-12" fill="#FCBD1B" points="0.000859900682 134.432917 44.6090677 89.8247092 44.6090677 0.606573941 0.000859900682 0.606573941"></polygon>
                    <polygon id="Fill-14" fill="#FCBD1B" points="89.2188232 0.60588602 89.2188232 45.2140938 133.825311 0.60588602"></polygon>
                    <path d="M142.332825,137.961605 L82.7915816,51.6430552 L51.2418256,83.1910914 L94.5257863,146.350796 C100.770385,155.464024 109.776985,159.080766 119.468065,159.080766 L162.280801,159.080766 C154.892534,153.312552 147.191263,145.007632 142.332825,137.961605" id="Fill-16" fill="#FCBD1B"></path>
                </g>
            </g>
        </g>
    </g>
</svg>