<svg width="64px" height="52px" viewBox="0 0 64 52" version="1.1"
  xmlns="http://www.w3.org/2000/svg"
  xmlns:xlink="http://www.w3.org/1999/xlink">
  <defs>
    <path d="M16.4830252,26.0135417 L19.6668908,22.806875 L42.0722689,0.241041667 L48.6013445,0.241041667 L48.6013445,0.476666667 L23.0497479,26.2139583 L48.6013445,51.9485417 L48.6013445,51.98375 L41.8732773,51.98375 L16.2840336,26.2139583 L16.4830252,26.0135417 Z M0.69815126,26.0135417 L3.88201681,22.806875 L26.287395,0.241041667 L33.0504202,0.241041667 L7.26487395,26.2139583 L32.8514286,51.98375 L26.0857143,51.98375 L0.499159664,26.2139583 L0.69815126,26.0135417 Z" id="path-1"></path>
    <path d="M8.93042017,38.0695036 L8.93042017,51.98375 L4.74084034,51.98375 L4.74084034,42.25 L4.74084034,42.0414583 L13.1388235,33.4045833 L13.3539496,33.62125 L8.93042017,38.0695036 Z M8.93042017,30.9372917 L8.93042017,31.15125 L0.419495798,39.7258333 L0.204369748,39.5091667 L4.74084034,34.9965283 L4.74084034,0.241041667 L8.93042017,0.241041667 L8.93042017,30.9372917 Z" id="path-3"></path>
    <path d="M1.54621849,0 C2.40017138,-1.56868601e-16 3.09243697,0.692265597 3.09243697,1.54621849 L3.09243697,1.56836485 C3.09243697,2.42231774 2.40017138,3.11458333 1.54621849,3.11458333 C0.692265597,3.11458333 1.04579067e-16,2.42231774 0,1.56836485 L0,1.54621849 C-1.04579067e-16,0.692265597 0.692265597,1.56868601e-16 1.54621849,0 Z M1.54621849,0.402515723 C0.914568892,0.402515723 0.402515723,0.914568892 0.402515723,1.54621849 L0.402515723,1.56836485 C0.402515723,2.20001444 0.914568892,2.71206761 1.54621849,2.71206761 C2.17786808,2.71206761 2.68992125,2.20001444 2.68992125,1.56836485 L2.68992125,1.54621849 C2.68992125,0.914568892 2.17786808,0.402515723 1.54621849,0.402515723 Z" id="path-5"></path>
    <path d="M1.54621849,0 C2.40017138,-1.56868601e-16 3.09243697,0.692265597 3.09243697,1.54621849 L3.09243697,1.56836485 C3.09243697,2.42231774 2.40017138,3.11458333 1.54621849,3.11458333 C0.692265597,3.11458333 1.04579067e-16,2.42231774 0,1.56836485 L0,1.54621849 C-1.04579067e-16,0.692265597 0.692265597,1.56868601e-16 1.54621849,0 Z M1.54621849,0.402515723 C0.914568892,0.402515723 0.402515723,0.914568892 0.402515723,1.54621849 L0.402515723,1.56836485 C0.402515723,2.20001444 0.914568892,2.71206761 1.54621849,2.71206761 C2.17786808,2.71206761 2.68992125,2.20001444 2.68992125,1.56836485 L2.68992125,1.54621849 C2.68992125,0.914568892 2.17786808,0.402515723 1.54621849,0.402515723 Z" id="path-7"></path>
  </defs>
  <g id="Page-1" stroke="none" stroke-width="1" fill="none" fill-rule="evenodd">
    <g id="Medium">
      <g id="K2" transform="translate(15.151261, 0.000000)">
        <g id="Styles-/-Colour-/-Primary-/-Accent-Clipped">
          <mask id="mask-2" fill="white">
            <use xlink:href="#path-1"></use>
          </mask>
          <g id="path-1"></g>
          <g id="Styles-/-Colour-/-Primary-/-Accent" mask="url(#mask-2)">
            <g transform="translate(-16.000000, 0.000000)" id="Container">
              <g transform="translate(0.848739, 0.000000)">
                <rect id="Rectangle-path" fill="#FFC800" fill-rule="nonzero" x="0" y="0" width="64.4025157" height="52.327044"></rect>
              </g>
            </g>
          </g>
        </g>
      </g>
      <g id="K1" transform="translate(2.151261, 0.000000)">
        <g id="Styles-/-Colour-/-Primary-/-Light-Clipped">
          <mask id="mask-4" fill="white">
            <use xlink:href="#path-3"></use>
          </mask>
          <g id="path-3"></g>
          <g id="Styles-/-Colour-/-Primary-/-Light" mask="url(#mask-4)">
            <g transform="translate(-3.000000, 0.000000)" id="Container">
              <g transform="translate(0.848739, 0.000000)">
                <rect id="Rectangle-path" fill="#DEE5ED" fill-rule="nonzero" x="0" y="0" width="64.4025157" height="52.327044"></rect>
              </g>
            </g>
          </g>
        </g>
      </g>
      <g id="circle2" transform="translate(14.789916, 30.875000)">
        <g id="Styles-/-Colour-/-Primary-/-Light-Clipped">
          <mask id="mask-6" fill="white">
            <use xlink:href="#path-5"></use>
          </mask>
          <g id="path-5"></g>
          <g id="Styles-/-Colour-/-Primary-/-Light" mask="url(#mask-6)">
            <g transform="translate(-1.000000, -1.000000)" id="Container">
              <g transform="translate(0.063995, 0.057292)">
                <rect id="Rectangle-path" fill="#DEE5ED" fill-rule="nonzero" x="0" y="0" width="5.03144654" height="5.03144654"></rect>
              </g>
            </g>
          </g>
        </g>
      </g>
      <g id="circle1" transform="translate(0.000000, 39.000000)">
        <g id="Styles-/-Colour-/-Primary-/-Light-Clipped">
          <mask id="mask-8" fill="white">
            <use xlink:href="#path-7"></use>
          </mask>
          <g id="path-7"></g>
          <g id="Styles-/-Colour-/-Primary-/-Light" mask="url(#mask-8)">
            <g transform="translate(-1.000000, -1.000000)" id="Container">
              <g transform="translate(0.063995, 0.057292)">
                <rect id="Rectangle-path" fill="#DEE5ED" fill-rule="nonzero" x="0" y="0" width="5.03144654" height="5.03144654"></rect>
              </g>
            </g>
          </g>
        </g>
      </g>
    </g>
  </g>
</svg>
