<?xml version="1.0" encoding="UTF-8"?>
<svg width="321px" height="137px" viewBox="0 0 321 137" version="1.1" xmlns="http://www.w3.org/2000/svg" xmlns:xlink="http://www.w3.org/1999/xlink">
    <!-- Generator: sketchtool 51 (57462) - http://www.bohemiancoding.com/sketch -->
    <title>C59AE440-C7A3-4EF8-83A4-F3582FE8718C</title>
    <desc>Created with sketchtool.</desc>
    <defs>
        <polygon id="path-1" points="0.0856 0.849114583 168.519293 0.849114583 168.519293 136.914375 0.0856 136.914375"></polygon>
        <path d="M43.48052,68.6598333 L111.27144,0.849114583 L128.572627,0.849114583 L128.572627,1.47132292 L60.87444,69.1878542 L128.572627,136.905812 L128.572627,137 L110.743573,137 L42.9512267,69.1878542 L43.48052,68.6598333 Z M1.65921333,68.6598333 L69.4501333,0.849114583 L87.3733467,0.849114583 L19.0531333,69.1878542 L86.84548,137 L68.9222667,137 L1.12992,69.1878542 L1.65921333,68.6598333 Z" id="path-3"></path>
        <path d="M12.1666133,0.849114583 L23.2675067,0.849114583 L23.2675067,82.1843021 L0.717613333,104.739354 L0.1498,104.169948 L12.1666133,92.2966146 L12.1666133,0.849114583 Z M34.98472,88.6818125 L23.2675067,100.382469 L23.2675067,137 L12.1666133,137 L12.1666133,110.835854 L34.4169067,88.1124062 L34.98472,88.6818125 Z" id="path-5"></path>
        <path d="M3.73929333,6.68303125 C2.42533333,6.68303125 1.35961333,5.61842708 1.35961333,4.30265625 C1.35961333,2.9883125 2.42533333,1.92228125 3.73929333,1.92228125 C5.05325333,1.92228125 6.1204,2.9883125 6.1204,4.30265625 C6.1204,5.61842708 5.05325333,6.68303125 3.73929333,6.68303125 Z M3.73929333,0.562270833 C1.67490667,0.562270833 0,2.23766667 0,4.30265625 C0,6.36907292 1.67490667,8.04304167 3.73929333,8.04304167 C5.80510667,8.04304167 7.48001333,6.36907292 7.48001333,4.30265625 C7.48001333,2.23766667 5.80510667,0.562270833 3.73929333,0.562270833 Z" id="path-7"></path>
        <path d="M4.44264,6.96844792 C3.12868,6.96844792 2.06296,5.90241667 2.06296,4.58807292 C2.06296,3.27372917 3.12868,2.20769792 4.44264,2.20769792 C5.7566,2.20769792 6.82232,3.27372917 6.82232,4.58807292 C6.82232,5.90241667 5.7566,6.96844792 4.44264,6.96844792 Z M4.44264,0.8476875 C2.37825333,0.8476875 0.703346667,2.52308333 0.703346667,4.58807292 C0.703346667,6.6530625 2.37825333,8.32845833 4.44264,8.32845833 C6.50845333,8.32845833 8.18193333,6.6530625 8.18193333,4.58807292 C8.18193333,2.52308333 6.50845333,0.8476875 4.44264,0.8476875 Z" id="path-9"></path>
        <path d="M5.30149333,13.4402708 L2.38824,16.8210312 L2.38824,25.8202187 L0.42372,25.8202187 L0.42372,0.716395833 L2.38824,0.716395833 L2.38824,14.0953021 L5.14598667,10.6474687 L12.92132,0.716395833 L15.3851733,0.716395833 L6.62829333,11.8890312 L16.05856,25.8202187 L13.66176,25.8202187 L5.30149333,13.4402708 Z M30.7503733,25.8202187 L30.7503733,0.716395833 L32.71632,0.716395833 L32.71632,25.8202187 L30.7503733,25.8202187 Z M65.38556,25.8202187 L63.42104,25.8202187 L51.5797067,4.43965625 L51.5797067,25.8202187 L49.5980667,25.8202187 L49.5980667,0.716395833 L51.5797067,0.716395833 L63.43816,22.1297812 L63.43816,0.716395833 L65.38556,0.716395833 L65.38556,25.8202187 Z M93.6449733,13.80275 L83.90512,13.80275 L83.90512,23.992125 L95.11016,23.992125 L95.11016,25.8202187 L81.9406,25.8202187 L81.9406,0.716395833 L95.0231333,0.716395833 L95.0231333,2.57873958 L83.90512,2.57873958 L83.90512,11.9746562 L93.6449733,11.9746562 L93.6449733,13.80275 Z M121.86872,19.6480833 C121.86872,18.2452604 121.469253,17.142125 120.67032,16.33725 C119.86996,15.532375 118.38052,14.76175 116.196293,14.0268021 C114.013493,13.2904271 112.411347,12.4698542 111.388427,11.5608021 C110.044507,10.37775 109.37112,8.81366667 109.37112,6.87140625 C109.37112,4.95197917 110.031667,3.38789583 111.354187,2.18201042 C112.67528,0.974697917 114.381573,0.371041667 116.473067,0.371041667 C118.610213,0.371041667 120.356453,1.07173958 121.711787,2.4745625 C123.068547,3.87738542 123.746213,5.68121875 123.746213,7.88891667 L121.764573,7.88891667 C121.764573,6.19925 121.29092,4.83353125 120.343613,3.7931875 C119.393453,2.75284375 118.103747,2.23338542 116.473067,2.23338542 C114.886613,2.23338542 113.636853,2.66151042 112.723787,3.51776042 C111.81072,4.37401042 111.354187,5.48 111.354187,6.83715625 C111.354187,8.10155208 111.78504,9.1361875 112.646747,9.93963542 C113.508453,10.7445104 114.880907,11.4609062 116.76696,12.0873958 C118.65016,12.7138854 120.0754,13.3632083 121.041253,14.0353646 C122.007107,14.7075208 122.719013,15.498125 123.1784,16.40575 C123.637787,17.313375 123.86748,18.3822604 123.86748,19.6138333 C123.86748,21.5775 123.202653,23.1629896 121.87728,24.3631667 C120.549053,25.5633437 118.794253,26.1641458 116.610027,26.1641458 C115.139133,26.1641458 113.798067,25.8630312 112.5854,25.2608021 C111.372733,24.6571458 110.425427,23.7880521 109.742053,22.6549479 C109.057253,21.5232708 108.71628,20.1875208 108.71628,18.6476979 L110.6808,18.6476979 C110.6808,20.4172812 111.2158,21.8086875 112.284373,22.8204896 C113.352947,23.8322917 114.795307,24.3374792 116.610027,24.3374792 C118.19648,24.3374792 119.469067,23.9122083 120.429213,23.0616667 C121.387933,22.211125 121.86872,21.0723125 121.86872,19.6480833 Z M139.28404,25.8202187 L139.28404,0.716395833 L141.249987,0.716395833 L141.249987,25.8202187 L139.28404,25.8202187 Z M169.921707,19.6480833 C169.921707,18.2452604 169.520813,17.142125 168.723307,16.33725 C167.924373,15.532375 166.433507,14.76175 164.250707,14.0268021 C162.06648,13.2904271 160.464333,12.4698542 159.441413,11.5608021 C158.096067,10.37775 157.424107,8.81366667 157.424107,6.87140625 C157.424107,4.95197917 158.08608,3.38789583 159.405747,2.18201042 C160.728267,0.974697917 162.433133,0.371041667 164.526053,0.371041667 C166.6632,0.371041667 168.40944,1.07173958 169.7662,2.4745625 C171.121533,3.87738542 171.800627,5.68121875 171.800627,7.88891667 L169.81756,7.88891667 C169.81756,6.19925 169.343907,4.83353125 168.395173,3.7931875 C167.447867,2.75284375 166.15816,2.23338542 164.526053,2.23338542 C162.9396,2.23338542 161.68984,2.66151042 160.776773,3.51776042 C159.863707,4.37401042 159.405747,5.48 159.405747,6.83715625 C159.405747,8.10155208 159.8366,9.1361875 160.699733,9.93963542 C161.56144,10.7445104 162.933893,11.4609062 164.81852,12.0873958 C166.704573,12.7138854 168.128387,13.3632083 169.092813,14.0353646 C170.058667,14.7075208 170.770573,15.498125 171.22996,16.40575 C171.690773,17.313375 171.920467,18.3822604 171.920467,19.6138333 C171.920467,21.5775 171.257067,23.1629896 169.92884,24.3631667 C168.603467,25.5633437 166.84724,26.1641458 164.66444,26.1641458 C163.193547,26.1641458 161.851053,25.8630312 160.639813,25.2608021 C159.42572,24.6571458 158.478413,23.7880521 157.79504,22.6549479 C157.111667,21.5232708 156.769267,20.1875208 156.769267,18.6476979 L158.735213,18.6476979 C158.735213,20.4172812 159.268787,21.8086875 160.33736,22.8204896 C161.405933,23.8322917 162.846867,24.3374792 164.66444,24.3374792 C166.249467,24.3374792 167.522053,23.9122083 168.4822,23.0616667 C169.442347,22.211125 169.921707,21.0723125 169.921707,19.6480833 Z" id="path-11"></path>
    </defs>
    <g id="Restore-Wallet" stroke="none" stroke-width="1" fill="none" fill-rule="evenodd">
        <g id="Login-page-1" transform="translate(-560.000000, -72.000000)">
            <g id="Header" transform="translate(500.000000, 72.000000)">
                <g id="Styles-/Logo/Kinesis/Text" transform="translate(60.000000, 0.000000)">
                    <g id="Logo">
                        <mask id="mask-2" fill="white">
                            <use xlink:href="#path-1"></use>
                        </mask>
                        <g id="Clip-2"></g>
                        <g id="Right" mask="url(#mask-2)">
                            <g transform="translate(39.946667, 0.000000)">
                                <mask id="mask-4" fill="white">
                                    <use xlink:href="#path-3"></use>
                                </mask>
                                <use id="Mask" stroke="none" fill="#F9D220" fill-rule="evenodd" xlink:href="#path-3"></use>
                                <g id="Styles-/-Colour-/-Primary-/-Accent" stroke="none" fill="none" mask="url(#mask-4)" fill-rule="evenodd">
                                    <g transform="translate(-39.946667, 0.000000)" fill="#FFC800" id="Container">
                                        <rect x="0" y="0" width="172.075472" height="137.861635"></rect>
                                    </g>
                                </g>
                            </g>
                        </g>
                        <g id="Left" mask="url(#mask-2)">
                            <g id="Left-Colour" transform="translate(5.706667, 0.000000)">
                                <mask id="mask-6" fill="white">
                                    <use xlink:href="#path-5"></use>
                                </mask>
                                <use id="Mask" fill="#262D41" xlink:href="#path-5"></use>
                                <g id="Styles-/-Colour-/-Primary-/-Light" mask="url(#mask-6)" fill="#DEE5ED">
                                    <g transform="translate(-5.706667, 0.000000)" id="Container">
                                        <rect x="0" y="0" width="50.3144654" height="137.861635"></rect>
                                    </g>
                                </g>
                            </g>
                            <g id="Left-Colour" transform="translate(0.000000, 102.750000)">
                                <mask id="mask-8" fill="white">
                                    <use xlink:href="#path-7"></use>
                                </mask>
                                <use id="Mask" fill="#262D41" xlink:href="#path-7"></use>
                                <g id="Styles-/-Colour-/-Primary-/-Light" mask="url(#mask-8)" fill="#DEE5ED">
                                    <g transform="translate(0.000000, -102.750000)" id="Container">
                                        <rect x="0" y="0" width="50.3144654" height="137.861635"></rect>
                                    </g>
                                </g>
                            </g>
                            <g id="Left-Colour" transform="translate(38.520000, 81.343750)">
                                <mask id="mask-10" fill="white">
                                    <use xlink:href="#path-9"></use>
                                </mask>
                                <use id="Mask" fill="#262D41" xlink:href="#path-9"></use>
                                <g id="Styles-/-Colour-/-Primary-/-Light" mask="url(#mask-10)" fill="#DEE5ED">
                                    <g transform="translate(-38.520000, -81.343750)" id="Container">
                                        <rect x="0" y="0" width="50.3144654" height="137.861635"></rect>
                                    </g>
                                </g>
                            </g>
                        </g>
                    </g>
                    <g id="Text" transform="translate(148.373333, 55.656250)">
                        <mask id="mask-12" fill="white">
                            <use xlink:href="#path-11"></use>
                        </mask>
                        <use id="Mask" fill="#262D41" xlink:href="#path-11"></use>
                        <g id="Styles-/-Colour-/-Primary-/-Light" mask="url(#mask-12)" fill="#DEE5ED">
                            <g transform="translate(-148.373333, -55.656250)" id="Container">
                                <rect x="0" y="0" width="324.025157" height="137.861635"></rect>
                            </g>
                        </g>
                    </g>
                </g>
            </g>
        </g>
    </g>
</svg>