<?xml version="1.0" encoding="UTF-8"?>
<svg width="470px" height="310px" viewBox="0 0 470 310" version="1.1" xmlns="http://www.w3.org/2000/svg" xmlns:xlink="http://www.w3.org/1999/xlink">
    <!-- Generator: sketchtool 51 (57462) - http://www.bohemiancoding.com/sketch -->
    <title>3864A080-F214-4B1D-832B-6BC12F270F43</title>
    <desc>Created with sketchtool.</desc>
    <defs></defs>
    <g id="On-boarding" stroke="none" stroke-width="1" fill="none" fill-rule="evenodd">
        <g id="On-Boarding-1" transform="translate(-800.000000, -233.000000)" fill-rule="nonzero">
            <g id="Modal">
                <g id="Onboarding1" transform="translate(0.000000, 100.000000)">
                    <g id="Onboarding-1" transform="translate(339.000000, 0.000000)">
                        <g id="Info" transform="translate(29.000000, 133.000000)">
                            <g id="onboarding_stickers_Artboard-2-copy" transform="translate(432.000000, 0.000000)">
                                <g id="Group" opacity="0.3" transform="translate(89.460227, 5.344828)" fill="#000000">
                                    <rect id="Rectangle-path" x="0.420596591" y="0.187068966" width="296.547301" height="296.764871" rx="12"></rect>
                                </g>
                                <rect id="Rectangle-path" fill="#FFFFFF" x="84.9071023" y="0.554525862" width="296.547301" height="296.764871" rx="12"></rect>
                                <rect id="Rectangle-path" fill="#446CB3" x="91.8102273" y="7.46271552" width="282.741051" height="282.948491" rx="12"></rect>
                                <rect id="Rectangle-path" fill="#1F2D3B" opacity="0.45" x="91.8102273" y="7.46271552" width="282.741051" height="282.948491" rx="12"></rect>
                                <rect id="Rectangle-path" fill="#446CB3" x="107.873011" y="23.5439655" width="250.615483" height="250.799353" rx="6.26"></rect>
                                <ellipse id="Oval" fill="#DEE5ED" cx="233.184091" cy="148.940302" rx="59.437642" ry="59.48125"></ellipse>
                                <ellipse id="Oval" fill="#2B3E50" cx="233.184091" cy="148.940302" rx="43.374858" ry="43.406681"></ellipse>
                                <rect id="Rectangle-path" fill="#DEE5ED" x="231.575142" y="113.570905" width="3.21122159" height="9.64741379" rx="1"></rect>
                                <rect id="Rectangle-path" fill="#DEE5ED" transform="translate(217.919594, 122.491187) rotate(-30.000000) translate(-217.919594, -122.491187) " x="216.313984" y="117.667481" width="3.21122159" height="9.64741379" rx="1"></rect>
                                <rect id="Rectangle-path" fill="#DEE5ED" transform="translate(206.743422, 133.671821) rotate(-60.000000) translate(-206.743422, -133.671821) " x="205.137811" y="128.848114" width="3.21122159" height="9.64741379" rx="1"></rect>
                                <rect id="Rectangle-path" fill="#DEE5ED" transform="translate(202.654119, 148.943642) rotate(-90.000000) translate(-202.654119, -148.943642) " x="201.048509" y="144.119935" width="3.21122159" height="9.64741379" rx="1"></rect>
                                <rect id="Rectangle-path" fill="#DEE5ED" transform="translate(206.749885, 164.217511) rotate(-120.000000) translate(-206.749885, -164.217511) " x="205.144275" y="159.393804" width="3.21122159" height="9.64741379" rx="1"></rect>
                                <rect id="Rectangle-path" fill="#DEE5ED" transform="translate(217.921954, 175.392388) rotate(-150.000000) translate(-217.921954, -175.392388) " x="216.316343" y="170.568681" width="3.21122159" height="9.64741379" rx="1"></rect>
                                <rect id="Rectangle-path" fill="#DEE5ED" transform="translate(233.180753, 179.485991) rotate(-180.000000) translate(-233.180753, -179.485991) " x="231.575142" y="174.662284" width="3.21122159" height="9.64741379" rx="1"></rect>
                                <rect id="Rectangle-path" fill="#DEE5ED" transform="translate(248.442124, 175.395728) rotate(150.000000) translate(-248.442124, -175.395728) " x="246.836513" y="170.572022" width="3.21122159" height="9.64741379" rx="1"></rect>
                                <rect id="Rectangle-path" fill="#DEE5ED" transform="translate(259.618296, 164.209151) rotate(120.000000) translate(-259.618296, -164.209151) " x="258.012686" y="159.385444" width="3.21122159" height="9.64741379" rx="1"></rect>
                                <rect id="Rectangle-path" fill="#DEE5ED" transform="translate(263.707386, 148.943642) rotate(90.000000) translate(-263.707386, -148.943642) " x="262.101776" y="144.119935" width="3.21122159" height="9.64741379" rx="1"></rect>
                                <rect id="Rectangle-path" fill="#DEE5ED" transform="translate(259.611408, 133.663461) rotate(60.000000) translate(-259.611408, -133.663461) " x="258.005797" y="128.839754" width="3.21122159" height="9.64741379" rx="1"></rect>
                                <rect id="Rectangle-path" fill="#DEE5ED" transform="translate(248.439339, 122.487847) rotate(30.000000) translate(-248.439339, -122.487847) " x="246.833728" y="117.66414" width="3.21122159" height="9.64741379" rx="1"></rect>
                                <path d="M230.039631,96.5142241 L233.184091,103.368966 L236.321875,96.5142241 C237.156392,94.6903017 235.534091,90.7351293 233.184091,90.7351293 C230.827415,90.7351293 229.205114,94.6903017 230.039631,96.5142241 Z" id="Shape" fill="#2B3E50"></path>
                                <rect id="Rectangle-path" fill="#1F2D3B" x="99.8416193" y="63.737069" width="16.0627841" height="46.6202586" rx="5"></rect>
                                <rect id="Rectangle-path" fill="#1F2D3B" x="99.8416193" y="187.523276" width="16.0627841" height="46.6202586" rx="5"></rect>
                                <g id="Group" opacity="0.3" transform="translate(4.005682, 144.310345)" fill="#000000">
                                    <path d="M171.890483,85.2700431 C170.899568,82.4261601 168.223934,80.5170333 165.214347,80.5064655 L125.25767,80.5064655 C122.246792,80.5130163 119.569075,82.4236296 118.581534,85.2700431 L104.214489,126.552155 L186.264205,126.552155 L171.890483,85.2700431 Z" id="Shape"></path>
                                    <path d="M102.652273,85.2700431 C101.659678,82.4274211 98.98508,80.5190335 95.9761364,80.5064655 L56.0194602,80.5064655 C53.0085819,80.5130163 50.3308645,82.4236296 49.3433239,85.2700431 L34.9896307,126.552155 L116.99929,126.552155 L102.652273,85.2700431 Z" id="Shape"></path>
                                    <path d="M68.0298295,124.3875 C67.042865,121.539717 64.3656677,119.626795 61.3536932,119.617241 L21.4036932,119.617241 C18.393011,119.630806 15.7178923,121.542242 14.7275568,124.3875 L0.353835227,165.689655 L82.3768466,165.689655 L68.0298295,124.3875 Z" id="Shape"></path>
                                    <path d="M137.26804,124.3875 C136.281075,121.539717 133.603878,119.626795 130.591903,119.617241 L90.6419034,119.617241 C87.6312212,119.630806 84.9561025,121.542242 83.965767,124.3875 L69.5920455,165.689655 L151.621733,165.689655 L137.26804,124.3875 Z" id="Shape"></path>
                                    <path d="M206.50625,124.3875 C205.519285,121.539717 202.842088,119.626795 199.830114,119.617241 L159.880114,119.617241 C156.869431,119.630806 154.194313,121.542242 153.203977,124.3875 L138.863636,165.689655 L220.859943,165.689655 L206.50625,124.3875 Z" id="Shape"></path>
                                    <path d="M137.26804,46.7137931 C136.280499,43.8673796 133.602782,41.9567663 130.591903,41.9502155 L90.6419034,41.9502155 C87.6323159,41.9607833 84.9566818,43.8699101 83.965767,46.7137931 L69.61875,87.9959052 L151.621733,87.9959052 L137.26804,46.7137931 Z" id="Shape"></path>
                                    <path d="M93.2322443,69.8769397 C91.8569602,64.3650862 91.35625,59.5547414 91.7167614,55.3456897 C101.590767,53.5818966 112.719886,56.6818966 125.765057,64.5053879 C112.693182,56.6484914 104.761932,48.2571121 101.670881,38.7032328 C105.215909,36.4116379 109.682244,34.5943966 115.210085,33.2181034 C109.695597,34.5943966 104.888778,35.0954741 100.682813,34.7346983 C98.9269886,24.8534483 102.01804,13.7161638 109.835795,0.661422414 C102.011364,13.7161638 93.6261364,21.6532328 84.1193182,24.7198276 C81.8227273,21.1721983 80.0068182,16.7025862 78.6315341,11.1706897 C80.0068182,16.6892241 80.5075284,21.499569 80.147017,25.7086207 C70.2730114,27.4657328 59.143892,24.3724138 46.0987216,16.5489224 C59.1705966,24.3991379 67.1018466,32.7905172 70.1928977,42.3443966 C66.6478693,44.6426724 62.1815341,46.4599138 56.6536932,47.8362069 C62.1681818,46.4599138 66.975,45.9588362 71.1809659,46.312931 C72.9367898,56.2008621 69.8457386,67.3381466 62.027983,80.4196121 C69.8791193,67.3381466 78.2643466,59.4010776 87.8112216,56.3077586 C90.0410511,59.8821121 91.8569602,64.3650862 93.2322443,69.8769397 Z" id="Shape"></path>
                                </g>
                                <path d="M171.983949,225.671983 C170.996984,222.824199 168.319787,220.911278 165.307813,220.901724 L125.357813,220.901724 C122.34713,220.915289 119.672012,222.826725 118.681676,225.671983 L104.334659,266.954095 L186.337642,266.954095 L171.983949,225.671983 Z" id="Shape" fill="#FFFFFF"></path>
                                <path d="M102.745739,225.671983 C101.758774,222.824199 99.0815768,220.911278 96.0696023,220.901724 L56.1196023,220.901724 C53.1089201,220.915289 50.4338014,222.826725 49.4434659,225.671983 L35.0697443,266.954095 L117.092756,266.954095 L102.745739,225.671983 Z" id="Shape" fill="#FFFFFF"></path>
                                <path d="M68.1299716,264.782759 C67.1373771,261.940137 64.4627789,260.031749 61.4538352,260.019181 L21.4971591,260.019181 C18.4862808,260.025732 15.8085633,261.936345 14.8210227,264.782759 L0.447301136,306.064871 L82.4769886,306.064871 L68.1299716,264.782759 Z" id="Shape" fill="#FFFFFF"></path>
                                <path d="M137.368182,264.782759 C136.377267,261.938876 133.701633,260.029749 130.692045,260.019181 L90.7353693,260.019181 C87.724491,260.025732 85.0467735,261.936345 84.059233,264.782759 L69.7055398,306.064871 L151.715199,306.064871 L137.368182,264.782759 Z" id="Shape" fill="#FFFFFF"></path>
                                <path d="M206.606392,264.782759 C205.615477,261.938876 202.939843,260.029749 199.930256,260.019181 L159.97358,260.019181 C156.962701,260.025732 154.284984,261.936345 153.297443,264.782759 L138.930398,306.064871 L220.980114,306.064871 L206.606392,264.782759 Z" id="Shape" fill="#FFFFFF"></path>
                                <path d="M137.368182,187.115733 C136.381217,184.267949 133.70402,182.355028 130.692045,182.345474 L90.7353693,182.345474 C87.722747,182.353014 85.0445046,184.266682 84.059233,187.115733 L69.7055398,228.397845 L151.715199,228.397845 L137.368182,187.115733 Z" id="Shape" fill="#FFFFFF"></path>
                                <path d="M133.135511,190.008621 C132.300522,187.609035 130.039903,186.000781 127.500852,186 L93.9065341,186 C91.3688738,186.009962 89.1110726,187.614311 88.2651989,190.008621 L76.1947443,224.75 L145.205966,224.75 L133.135511,190.008621 Z" id="Shape" fill="#FFC800"></path>
                                <polygon id="Shape" fill="#CCA127" opacity="0.75" points="80.881392 211.267672 76.1947443 224.743319 99.7615057 224.743319 121.645881 224.743319 145.205966 224.743319 140.525994 211.267672"></polygon>
                                <path d="M98.6332386,228.75194 C97.7873649,226.35763 95.5295637,224.753281 92.9919034,224.743319 L59.4176136,224.743319 C56.8785627,224.7441 54.6179444,226.352354 53.7829545,228.75194 L41.7125,263.493319 L110.703693,263.493319 L98.6332386,228.75194 Z" id="Shape" fill="#FFC800"></path>
                                <polygon id="Shape" fill="#CCA127" opacity="0.75" points="46.3724432 250.010991 41.6924716 263.486638 65.259233 263.486638 87.1369318 263.486638 110.703693 263.486638 106.017045 250.010991"></polygon>
                                <path d="M167.64446,228.75194 C166.798586,226.35763 164.540785,224.753281 162.003125,224.743319 L128.408807,224.743319 C125.869756,224.7441 123.609138,226.352354 122.774148,228.75194 L110.703693,263.493319 L179.714915,263.493319 L167.64446,228.75194 Z" id="Shape" fill="#FFC800"></path>
                                <polygon id="Shape" fill="#CCA127" opacity="0.75" points="115.383665 250.010991 110.703693 263.486638 134.270455 263.486638 156.148153 263.486638 179.714915 263.486638 175.028267 250.010991"></polygon>
                                <path d="M64.1242898,267.495259 C63.2909967,265.094399 61.0293266,263.485397 58.4896307,263.486638 L24.8953125,263.486638 C22.3549703,263.483368 20.0922438,265.093121 19.2606534,267.495259 L7.18352273,302.236638 L76.1947443,302.236638 L64.1242898,267.495259 Z" id="Shape" fill="#FFC800"></path>
                                <polygon id="Shape" fill="#CCA127" opacity="0.75" points="11.8701705 288.747629 7.18352273 302.223276 30.7502841 302.223276 52.6346591 302.223276 76.1947443 302.223276 71.5147727 288.747629"></polygon>
                                <path d="M133.135511,267.495259 C132.302218,265.094399 130.040548,263.485397 127.500852,263.486638 L93.9065341,263.486638 C91.3643865,263.482548 89.0992943,265.092077 88.2651989,267.495259 L76.1947443,302.236638 L145.205966,302.236638 L133.135511,267.495259 Z" id="Shape" fill="#FFC800"></path>
                                <polygon id="Shape" fill="#CCA127" opacity="0.75" points="80.881392 288.747629 76.1947443 302.223276 99.7615057 302.223276 121.645881 302.223276 145.205966 302.223276 140.525994 288.747629"></polygon>
                                <path d="M202.146733,267.495259 C201.31344,265.094399 199.05177,263.485397 196.512074,263.486638 L162.897727,263.486638 C160.35558,263.482548 158.090488,265.092077 157.256392,267.495259 L145.185937,302.236638 L214.217187,302.236638 L202.146733,267.495259 Z" id="Shape" fill="#FFC800"></path>
                                <polygon id="Shape" fill="#CCA127" opacity="0.75" points="149.892614 288.747629 145.205966 302.223276 168.772727 302.223276 190.650426 302.223276 214.217187 302.223276 209.537216 288.747629"></polygon>
                                <path d="M93.3323864,210.278879 C91.9504261,204.760345 91.456392,199.95 91.8102273,195.740948 C101.690909,193.983836 112.820028,197.077155 125.858523,204.907328 C112.786648,197.050431 104.855398,188.659052 101.764347,179.105172 C105.309375,176.806897 109.77571,174.989655 115.296875,173.613362 C109.782386,174.989655 104.982244,175.490733 100.769602,175.136638 C99.0137784,165.248707 102.10483,154.111422 109.929261,141.063362 C102.078125,154.144828 93.6928977,162.081897 84.1460227,165.175216 C81.856108,161.627586 80.0401989,157.157974 78.6649148,151.632759 C80.0401989,157.151293 80.5409091,161.954957 80.1803977,166.17069 C70.2997159,167.927802 59.1705966,164.834483 46.0987216,157.00431 C59.1705966,164.861207 67.1018466,173.252586 70.1928977,182.806466 C66.6478693,185.09806 62.1815341,186.915302 56.6603693,188.291595 C62.174858,186.915302 66.975,186.414224 71.187642,186.775 C72.9434659,196.662931 69.8524148,207.800216 62.027983,220.848276 C69.8791193,207.773491 78.2643466,199.829741 87.8112216,196.736422 C90.1278409,200.284052 91.9504261,204.760345 93.3323864,210.278879 Z" id="Shape" fill="#FFFFFF"></path>
                                <path d="M90.227983,197.845474 C89.4791074,195.119735 89.1836338,192.289234 89.3534091,189.467457 C95.0481534,188.458621 101.46392,190.222414 108.994602,194.752155 C101.46392,190.222414 96.890767,185.398707 95.1082386,179.880172 C97.5197192,178.407188 100.156127,177.339664 102.912642,176.720043 C100.188834,177.469109 97.360467,177.764793 94.540767,177.595259 C93.5259943,171.896336 95.2884943,165.475862 99.8149148,157.939655 C95.2884943,165.475862 90.4683239,170.052371 84.9538352,171.836207 C83.4819305,169.422957 82.415189,166.784615 81.7960227,164.026078 C82.5445394,166.751884 82.8400068,169.582326 82.6705966,172.404095 C76.9758523,173.419612 70.5600852,171.655819 63.0294034,167.126078 C70.5600852,171.655819 75.1332386,176.479526 76.915767,181.99806 C74.5067228,183.471129 71.8724942,184.538684 69.1180398,185.15819 C71.8417803,184.408765 74.6702068,184.113074 77.4899148,184.282974 C78.4980114,189.981897 76.7355114,196.39569 72.2090909,203.938578 C76.7355114,196.39569 81.5556818,191.825862 87.0701705,190.042026 C88.5421589,192.452838 89.6089312,195.088999 90.227983,197.845474 Z" id="Shape" fill="#FFD400"></path>
                                <g id="Group" opacity="0.3" transform="translate(228.991477, 178.383621)" fill="#000000">
                                    <path d="M191.458239,51.0030172 C190.46192,48.1437972 187.767901,46.2276571 184.742045,46.2260776 L144.685227,46.2260776 C141.659371,46.2276571 138.965352,48.1437972 137.969034,51.0030172 L123.588636,92.3853448 L205.838636,92.3853448 L191.458239,51.0030172 Z" id="Shape"></path>
                                    <path d="M122.046449,51.0030172 C121.051824,48.1425245 118.356756,46.225638 115.330256,46.2260776 L75.3068182,46.2260776 C72.2803181,46.225638 69.5852494,48.1425245 68.590625,51.0030172 L54.2035511,92.3853448 L136.433523,92.3853448 L122.046449,51.0030172 Z" id="Shape"></path>
                                    <path d="M87.343892,90.1939655 C86.3492676,87.3334728 83.654199,85.4165863 80.6276989,85.4170259 L40.6042614,85.4170259 C37.5759535,85.4157637 34.8785176,87.3324288 33.881392,90.1939655 L19.5009943,131.616379 L101.730966,131.616379 L87.343892,90.1939655 Z" id="Shape"></path>
                                    <path d="M156.755682,90.1939655 C155.759364,87.3347455 153.065345,85.4186054 150.039489,85.4170259 L109.98267,85.4170259 C106.966629,85.4299354 104.28625,87.343984 103.293182,90.1939655 L88.9127841,131.616379 L171.13608,131.616379 L156.755682,90.1939655 Z" id="Shape"></path>
                                    <path d="M226.160795,90.1939655 C225.164477,87.3347455 222.470458,85.4186054 219.444602,85.4170259 L179.387784,85.4170259 C176.371742,85.4299354 173.691364,87.343984 172.698295,90.1939655 L158.317898,131.616379 L240.547869,131.616379 L226.160795,90.1939655 Z" id="Shape"></path>
                                    <path d="M156.755682,12.3532328 C155.763328,9.49010299 153.067733,7.57016077 150.039489,7.56961207 L109.98267,7.56961207 C106.954426,7.57016077 104.258831,9.49010299 103.266477,12.3532328 L88.8860795,53.7355603 L171.13608,53.7355603 L156.755682,12.3532328 Z" id="Shape"></path>
                                    <path d="M181.5375,68.8948276 C178.867045,64.0978448 177.144602,59.7418103 176.403551,55.7198276 C185.175994,51.5508621 196.338494,51.5642241 210.545312,55.5528017 C196.338494,51.544181 186.798295,45.7650862 181.470739,37.6409483 C184.194602,34.5943966 187.906534,31.7549569 192.7,29.055819 C187.906534,31.7282328 183.553693,33.4519397 179.534659,34.1935345 C175.36875,25.4146552 175.382102,14.2439655 179.367756,0.0267241379 C175.362074,14.2439655 169.587216,23.7911638 161.469034,29.1226293 C158.424716,26.3967672 155.587358,22.6821121 152.896875,17.8851293 C155.56733,22.6821121 157.283097,27.0381466 158.024148,31.0601293 C149.251705,35.2290948 138.089205,35.2157328 123.889062,31.2271552 C138.089205,35.2357759 147.629403,41.0148707 152.95696,49.1390086 C150.233097,52.1855603 146.521165,55.025 141.727699,57.7174569 C146.521165,55.0450431 150.874006,53.3280172 154.89304,52.5864224 C159.058949,61.3586207 159.045597,72.5359914 155.059943,86.7465517 C159.065625,72.5359914 164.840483,62.9821121 172.958665,57.6573276 C176.002983,60.3831897 178.840341,64.0978448 181.5375,68.8948276 Z" id="Shape"></path>
                                    <path d="M59.1372159,95.5387931 C55.3847215,93.9419823 51.9185396,91.7415875 48.8759943,89.0247845 C52.828267,81.6756466 60.5792614,75.9767241 72.4494318,71.500431 C60.5792614,75.9767241 51.0056818,76.8452586 43.18125,73.9122845 C43.6707208,69.8585803 44.8232803,65.9130769 46.5927557,62.2338362 C44.9907956,65.9938915 42.7827793,69.4652096 40.0568182,72.5092672 C32.7130682,68.5540948 27.0183239,60.8040948 22.5386364,48.9185345 C27.0183239,60.8040948 27.8795455,70.3780172 24.9487216,78.2081897 C20.9114022,77.7249763 16.9804873,76.5829785 13.3122159,74.8275862 C17.0670264,76.4228923 20.5337876,78.6259121 23.5734375,81.3482759 C19.6211648,88.6974138 11.8701705,94.3896552 0,98.8726293 C11.8701705,94.3896552 21.44375,93.5278017 29.2681818,96.4607759 C28.7769276,100.514114 27.6244517,104.459331 25.8566761,108.139224 C27.4516752,104.381619 29.6504842,100.910594 32.3659091,97.8637931 C39.7096591,101.825647 45.4044034,109.575647 49.8840909,121.461207 C45.4044034,109.575647 44.5431818,100.001724 47.4740057,92.1648707 C51.5200647,92.6431133 55.4602086,93.7829144 59.1372159,95.5387931 Z" id="Shape"></path>
                                </g>
                                <path d="M416.530824,225.464871 C415.534506,222.605651 412.840487,220.689511 409.814631,220.687931 L369.757812,220.687931 C366.731957,220.689511 364.037937,222.605651 363.041619,225.464871 L348.661222,266.847198 L430.911222,266.847198 L416.530824,225.464871 Z" id="Shape" fill="#FFFFFF"></path>
                                <path d="M347.159091,225.464871 C346.161965,222.603334 343.464529,220.686669 340.436222,220.687931 L300.379403,220.687931 C297.353547,220.689511 294.659528,222.605651 293.66321,225.464871 L279.276136,266.847198 L361.506108,266.847198 L347.159091,225.464871 Z" id="Shape" fill="#FFFFFF"></path>
                                <path d="M312.443182,264.675862 C311.447627,261.803437 308.738334,259.88138 305.700284,259.892241 L265.710227,259.892241 C262.683727,259.891802 259.988659,261.808688 258.994034,264.669181 L244.57358,306.05819 L326.803551,306.05819 L312.443182,264.675862 Z" id="Shape" fill="#FFFFFF"></path>
                                <path d="M381.828267,264.675862 C380.834216,261.814005 378.139672,259.894812 375.112074,259.892241 L335.055256,259.892241 C332.0294,259.893821 329.335381,261.809961 328.339063,264.669181 L313.985369,306.05819 L396.208665,306.05819 L381.828267,264.675862 Z" id="Shape" fill="#FFFFFF"></path>
                                <path d="M451.233381,264.675862 C450.241026,261.812732 447.545432,259.89279 444.517188,259.892241 L404.460369,259.892241 C401.433869,259.891802 398.738801,261.808688 397.744176,264.669181 L383.390483,306.05819 L465.620455,306.05819 L451.233381,264.675862 Z" id="Shape" fill="#FFFFFF"></path>
                                <path d="M381.828267,186.815086 C380.832524,183.9545 378.139027,182.036052 375.112074,182.031466 L335.055256,182.031466 C332.028302,182.036052 329.334806,183.9545 328.339063,186.815086 L313.958665,228.197414 L396.208665,228.197414 L381.828267,186.815086 Z" id="Shape" fill="#FFFFFF"></path>
                                <path d="M377.335227,189.788147 C376.48853,187.391535 374.227329,185.78667 371.687216,185.779526 L338.032813,185.779526 C335.4927,185.78667 333.231499,187.391535 332.384801,189.788147 L320.294318,224.582974 L389.42571,224.582974 L377.335227,189.788147 Z" id="Shape" fill="#8694A4"></path>
                                <polygon id="Shape" fill="#6B7782" opacity="0.75" points="324.987642 211.080603 320.294318 224.582974 343.901136 224.582974 365.818892 224.582974 389.432386 224.582974 384.739062 211.080603"></polygon>
                                <path d="M341.925,228.598276 C341.078302,226.201664 338.817101,224.596799 336.276989,224.589655 L302.622585,224.589655 C300.082472,224.596799 297.821271,226.201664 296.974574,228.598276 L284.884091,263.393103 L354.015483,263.393103 L341.925,228.598276 Z" id="Shape" fill="#8694A4"></path>
                                <polygon id="Shape" fill="#6B7782" opacity="0.75" points="289.577415 249.897414 284.884091 263.393103 308.490909 263.393103 330.408665 263.393103 354.015483 263.393103 349.328835 249.897414"></polygon>
                                <path d="M412.745455,228.598276 C411.898757,226.201664 409.637556,224.596799 407.097443,224.589655 L373.44304,224.589655 C370.902927,224.596799 368.641726,226.201664 367.795028,228.598276 L355.704545,263.393103 L424.842614,263.393103 L412.745455,228.598276 Z" id="Shape" fill="#8694A4"></path>
                                <polygon id="Shape" fill="#6B7782" opacity="0.75" points="360.397869 249.897414 355.704545 263.393103 379.311364 263.393103 401.235795 263.393103 424.842614 263.393103 420.14929 249.897414"></polygon>
                                <path d="M406.610085,243.356681 C403.939631,238.559698 402.217187,234.203664 401.476136,230.181681 C410.24858,226.012716 421.41108,226.026078 435.617898,230.014655 C421.41108,226.006034 411.870881,220.22694 406.543324,212.102802 C409.267187,209.05625 412.979119,206.21681 417.772585,203.517672 C412.979119,206.190086 408.626278,207.913793 404.607244,208.655388 C400.441335,199.876509 400.454687,188.705819 404.440341,174.488578 C400.434659,188.705819 394.659801,198.253017 386.541619,203.584483 C383.497301,200.858621 380.659943,197.143966 377.96946,192.346983 C380.639915,197.143966 382.355682,201.5 383.096733,205.521983 C374.330966,209.690948 363.16179,209.677586 348.961648,205.689009 C363.16179,209.697629 372.708665,215.476724 378.029545,223.600862 C375.305682,226.647414 371.59375,229.486853 366.800284,232.17931 C371.59375,229.506897 375.946591,227.789871 379.965625,227.048276 C384.131534,235.827155 384.118182,246.997845 380.132528,261.208405 C384.13821,246.997845 389.913068,237.443966 398.03125,232.119181 C401.075568,234.845043 403.90625,238.559698 406.610085,243.356681 Z" id="Shape" fill="#FFFFFF"></path>
                                <path d="M377.608949,267.415086 C376.762251,265.018475 374.50105,263.41361 371.960937,263.406466 L338.31321,263.406466 C335.773097,263.41361 333.511896,265.018475 332.665199,267.415086 L320.56804,302.203233 L389.706108,302.203233 L377.608949,267.415086 Z" id="Shape" fill="#8694A4"></path>
                                <polygon id="Shape" fill="#6B7782" opacity="0.75" points="325.261364 288.707543 320.56804 302.203233 344.174858 302.203233 366.09929 302.203233 389.706108 302.203233 385.012784 288.707543"></polygon>
                                <path d="M446.753693,267.415086 C445.906996,265.018475 443.645795,263.41361 441.105682,263.406466 L407.451278,263.406466 C404.911166,263.41361 402.649965,265.018475 401.803267,267.415086 L389.712784,302.203233 L458.850852,302.203233 L446.753693,267.415086 Z" id="Shape" fill="#8694A4"></path>
                                <polygon id="Shape" fill="#6B7782" opacity="0.75" points="394.406108 288.707543 389.712784 302.203233 413.319602 302.203233 435.237358 302.203233 458.850852 302.203233 454.157528 288.707543"></polygon>
                                <path d="M308.477557,267.415086 C307.630859,265.018475 305.369658,263.41361 302.829545,263.406466 L269.175142,263.406466 C266.635029,263.41361 264.373828,265.018475 263.527131,267.415086 L251.429972,302.203233 L320.56804,302.203233 L308.477557,267.415086 Z" id="Shape" fill="#8694A4"></path>
                                <polygon id="Shape" fill="#6B7782" opacity="0.75" points="256.123295 288.707543 251.436648 302.203233 275.043466 302.203233 296.961222 302.203233 320.56804 302.203233 315.874716 288.707543"></polygon>
                                <path d="M401.115625,233.582328 C399.62512,231.063431 398.558307,228.316571 397.957812,225.451509 C403.365483,222.885991 410.24858,222.892672 419.00767,225.351293 C410.24858,222.892672 404.360227,219.338362 401.082244,214.307543 C403.083278,212.17452 405.422442,210.386693 408.005398,209.016164 C405.493997,210.504646 402.756258,211.572109 399.900568,212.176293 C397.330256,206.771336 397.336932,199.876509 399.79375,191.110991 C397.336932,199.876509 393.785227,205.769181 388.758097,209.049569 C386.628537,207.04535 384.842275,204.704805 383.470597,202.121336 C384.961235,204.63849 386.030191,207.382802 386.635085,210.245474 C381.227415,212.817672 374.337642,212.810991 365.585227,210.352371 C374.337642,212.810991 380.225994,216.365302 383.510653,221.396121 C381.505008,223.524029 379.166738,225.311173 376.5875,226.6875 C379.102067,225.194246 381.844625,224.124405 384.705682,223.52069 C387.269318,228.932328 387.262642,235.827155 384.805824,244.592672 C387.262642,235.827155 390.814347,229.934483 395.841477,226.647414 C397.968586,228.653131 399.750551,230.996216 401.115625,233.582328 Z" id="Shape" fill="#B2BCC1"></path>
                                <path d="M284.209801,270.007328 C280.45624,268.412549 276.989742,266.211954 273.94858,263.493319 C277.900852,256.144181 285.651847,250.445259 297.528693,245.968966 C285.651847,250.445259 276.078267,251.313793 268.253835,248.380819 C268.744258,244.32731 269.896773,240.38196 271.665341,236.702371 C270.069171,240.459361 267.870478,243.930203 265.156108,246.977802 C257.812358,243.015948 252.117614,235.265948 247.637926,223.380388 C252.117614,235.265948 252.978835,244.839871 250.048011,252.670043 C245.999635,252.179139 242.059393,251.025767 238.384801,249.256034 C242.139612,250.851341 245.606373,253.05436 248.646023,255.776724 C244.69375,263.125862 236.942756,268.824784 225.072585,273.301078 C236.942756,268.824784 246.516335,267.95625 254.340767,270.889224 C253.849513,274.942562 252.697037,278.887779 250.929261,282.567672 C252.52426,278.810067 254.723069,275.339042 257.438494,272.292241 C264.782244,276.254095 270.476989,284.004095 274.956676,295.889655 C270.476989,284.004095 269.615767,274.430172 272.546591,266.593319 C276.594359,267.087185 280.534127,268.240418 284.209801,270.007328 Z" id="Shape" fill="#FFFFFF"></path>
                                <path d="M275.056818,265.851724 C272.807651,264.896722 270.730445,263.578612 268.908097,261.95 C271.278125,257.533836 275.91804,254.126509 283.034801,251.440733 C275.91804,254.113147 270.183239,254.634267 265.496591,252.890517 C265.779091,250.452933 266.460244,248.078434 267.512784,245.862069 C266.556233,248.115251 265.236874,250.196176 263.607244,252.021983 C259.200994,249.650216 255.796165,245.000216 253.112358,237.878233 C255.782812,245.000216 256.303551,250.739224 254.554403,255.435991 C252.128323,255.141975 249.766943,254.451323 247.564489,253.391595 C249.815618,254.346705 251.895006,255.664767 253.719886,257.293319 C251.349858,261.709483 246.703267,265.110129 239.586506,267.795905 C246.703267,265.123491 252.438068,264.602371 257.131392,266.352802 C256.83584,268.781122 256.143417,271.144309 255.081818,273.347845 C256.039864,271.097469 257.359111,269.018978 258.987358,267.194612 C263.393608,269.566379 266.798438,274.209698 269.482244,281.331681 C266.81179,274.209698 266.291051,268.47069 268.040199,263.780603 C270.476959,264.080189 272.847652,264.779955 275.056818,265.851724 Z" id="Shape" fill="#B2BCC1"></path>
                            </g>
                        </g>
                    </g>
                </g>
            </g>
        </g>
    </g>
</svg>