<?xml version="1.0" standalone="no"?>
<!DOCTYPE svg PUBLIC "-//W3C//DTD SVG 20010904//EN"
 "http://www.w3.org/TR/2001/REC-SVG-20010904/DTD/svg10.dtd">
<svg version="1.0" xmlns="http://www.w3.org/2000/svg"
 width="260.000000pt" height="260.000000pt" viewBox="0 0 260.000000 260.000000"
 preserveAspectRatio="xMidYMid meet">
<metadata>
Created by potrace 1.11, written by Peter Selinger 2001-2013
</metadata>
<g transform="translate(0.000000,260.000000) scale(0.100000,-0.100000)"
fill="#000000" stroke="none">
<path d="M310 1632 l0 -677 -85 -85 c-75 -74 -89 -84 -116 -82 -38 4 -69 -22
-69 -57 0 -32 8 -44 37 -60 45 -23 94 25 80 78 -3 14 37 61 159 182 l164 164
0 607 0 608 -85 0 -85 0 0 -678z m-180 -876 c6 -8 10 -25 8 -38 -6 -42 -78
-32 -78 11 0 37 46 55 70 27z"/>
<path d="M1215 1858 c-248 -249 -475 -479 -504 -510 l-54 -57 499 -505 498
-506 134 0 134 0 -501 507 -501 508 507 507 508 508 -135 0 -135 0 -450 -452z"/>
<path d="M1782 1807 c-276 -276 -502 -506 -502 -511 0 -5 223 -235 496 -512
l496 -504 135 0 135 0 -502 507 -502 506 501 501 c276 276 501 504 501 509 0
4 -57 7 -128 7 l-127 0 -503 -503z"/>
<path d="M635 1090 c-12 -14 -16 -29 -13 -52 5 -31 -3 -42 -153 -198 l-159
-165 0 -197 0 -198 85 0 85 0 0 273 0 272 84 84 c69 69 87 82 105 76 35 -11
71 19 71 59 0 59 -66 89 -105 46z m75 -14 c6 -8 10 -25 8 -38 -2 -18 -10 -24
-35 -26 -28 -3 -33 1 -39 23 -11 45 37 75 66 41z"/>
</g>
</svg>
