<?xml version="1.0" encoding="UTF-8"?>
<svg width="200px" height="189px" viewBox="0 0 200 189" version="1.1" xmlns="http://www.w3.org/2000/svg" xmlns:xlink="http://www.w3.org/1999/xlink">
    <!-- Generator: sketchtool 51 (57462) - http://www.bohemiancoding.com/sketch -->
    <title>B9AFE4BB-C142-454C-A921-846CA90909BD</title>
    <desc>Created with sketchtool.</desc>
    <defs></defs>
    <g id="Funds" stroke="none" stroke-width="1" fill="none" fill-rule="evenodd">
        <g id="Funds-(empty-state-KAU)" transform="translate(-422.000000, -695.000000)" fill-rule="nonzero">
            <g id="Body">
                <g id="Main-Section" transform="translate(197.000000, 0.000000)">
                    <g id="Empty-state" transform="translate(225.000000, 249.000000)">
                        <g id="Transaction-Empty-state" transform="translate(0.000000, 367.000000)">
                            <g id="Wally-sleeping" transform="translate(0.000000, 79.000000)">
                                <path d="M79.346168,182 L37.8114624,96.9339651 C35.8738707,92.9096753 37.5241137,88.0643088 41.5059785,86.0862999 L145.201422,34.817522 C149.195883,32.8654612 154.005335,34.5280276 155.968682,38.5396271 L195,119.015744" id="Shape" stroke="#1F2D3B" stroke-width="3.43" fill="#2B3E50"></path>
                                <path d="M197.939713,123.585567 C200.465452,128.721009 198.325501,134.908919 193.14808,137.441114 L93.0719898,185.952254 C87.8789555,188.448499 81.6213722,186.332757 79.0625553,181.215543 C76.5328242,176.080345 78.6737617,169.889583 83.854188,167.359996 L183.923511,118.848857 C189.103066,116.321981 191.244329,110.133267 188.715143,105 L197.858499,123.438381 L197.939713,123.585567 Z" id="Shape" fill="#2B3E50"></path>
                                <path d="M198.818215,122.784491 C201.629657,128.586784 199.253669,135.589091 193.506666,138.438233 L93.7143452,187.801969 C87.9610573,190.647408 81.0096851,188.250834 78.1880207,182.44907 C75.3663563,176.647306 77.7429068,169.637364 83.4961947,166.791925 L183.295265,117.428189 C187.894612,115.146758 189.793921,109.540893 187.540454,104.898389 L189.362714,104 L198.818215,122.784491 Z M192.487551,136.341993 C197.089454,134.063053 198.99201,128.456516 196.739489,123.812193 L190.597801,111.18711 C189.923441,114.809553 187.594844,117.899313 184.31438,119.524429 L84.5153101,168.874553 C79.9774845,171.187327 78.1275898,176.74994 80.3651444,181.354055 C82.602699,185.95817 88.0957025,187.891818 92.6884807,185.692117 L192.487551,136.341993 Z" id="Shape" fill="#1F2D3B"></path>
                                <path d="M182.640248,70.6988684 L179.360596,64.0003045 C177.172072,59.5767391 171.82238,57.7479651 167.382442,59.9056134 L126.002136,80.3318484 C121.57695,82.5195708 119.747506,87.8673036 121.905945,92.3056157 L125.185598,98.9974338 C127.371488,103.423996 132.72406,105.253754 137.163752,103.092125 L178.550805,82.6658898 L181.999164,89.6949971 C186.426932,87.5128201 188.25543,82.162046 186.088607,77.7279757 L182.808955,71.0294118 L182.640248,70.6988684 Z" id="Shape" stroke="#1F2D3B" stroke-width="3.43" fill="#2B3E50"></path>
                                <rect id="Rectangle-path" fill="#1F2D3B" transform="translate(141.000000, 154.500000) rotate(-26.120000) translate(-141.000000, -154.500000) " x="84" y="153" width="114" height="3" rx="1.5"></rect>
                                <rect id="Rectangle-path" fill="#1F2D3B" transform="translate(136.000000, 150.500000) rotate(-26.120000) translate(-136.000000, -150.500000) " x="79" y="149" width="114" height="3" rx="1.5"></rect>
                                <path d="M136.032234,97.9999229 C132.473404,98.0164936 129.468727,95.3597219 129.049273,91.8255039 C128.629819,88.2912858 130.929147,85.0049604 134.392983,84.1879825 C137.856818,83.3710046 141.382232,85.2835101 142.586153,88.6327042 C143.790075,91.9818983 142.28916,95.7013558 139.097981,97.2768379 C138.144799,97.7491321 137.095995,97.9965024 136.032234,97.9999229 Z" id="Shape" fill="#2B3E50"></path>
                                <path d="M134.491391,84.2560457 C137.1754,84.2431945 139.441415,86.2472966 139.75681,88.9128707 C140.072204,91.5784449 138.336475,94.056085 135.723588,94.6700309 C133.110702,95.2839768 130.453275,93.8385897 129.548667,91.3114621 C128.644059,88.7843345 129.78053,85.9807554 132.189425,84.796935 C132.90516,84.4426055 133.69276,84.2575445 134.491391,84.2560457 Z M134.491391,82.0001418 C131.144714,82.0040545 128.205668,84.2250621 127.288045,87.4436388 C126.370422,90.6622156 127.696336,94.0992905 130.537745,95.8676116 C133.379154,97.6359326 137.048283,97.3074697 139.530462,95.0625774 C142.01264,92.8176852 142.707046,89.1997498 141.23239,86.1953316 C139.981624,83.6146068 137.359073,81.98249 134.491391,82.0001418 Z" id="Shape" fill="#1F2D3B"></path>
                                <path d="M69.0182138,91.6102489 C72.6401968,93.144698 76.7289759,93.1615956 80.3635894,91.6571358 C84.6894757,89.9022282 86.2680211,88.5492078 88.0010625,86.1311863 C89.0461027,84.7103373 89.7368706,83.0617989 90.0162269,81.3219357 C90.0162269,81.3219357 91.4402764,78.3144795 94.1473139,79.1450465 C96.8543514,79.9756134 97.1969294,82.0587289 96.9215236,82.9562771 C96.6461178,83.8538253 95.369847,90.1433605 91.7694199,93.1977035 C87.0673697,97.169689 77.6028142,100.652712 71.9133333,99.8958241 C68.0576521,99.3800688 65.5991515,97.9533691 64.3564668,95.6023288 C63.3891879,93.8206287 64.2154053,89.6343033 69.0182138,91.6102489 Z" id="Shape" fill="#1F2D3B"></path>
                                <path d="M121.040432,59.5194176 C124.663797,61.0880476 128.773821,61.1369547 132.434175,59.6549972 C136.76585,57.9195776 138.332918,56.5705601 140.057376,54.1436842 C141.085799,52.7088814 141.75435,51.051999 142.007656,49.3102695 C142.007656,49.3102695 143.417333,46.2936222 146.11351,47.154553 C148.809687,48.0154838 149.199743,50.1101895 148.926019,51.0117942 C148.652296,51.9133989 147.427383,58.2449688 143.841604,61.2955111 C139.167775,65.261216 129.683253,68.6981602 123.962431,67.8779033 C120.089243,67.3220267 117.612045,65.8442085 116.33923,63.4851225 C115.415413,61.70225 116.188682,57.4857227 121.040432,59.5194176 Z" id="Shape" fill="#1F2D3B"></path>
                                <path d="M101,138.373761 C102.256656,139.605736 103.058062,141.154263 103.295024,142.808352 C103.53586,144.70889 104.435453,150.271133 106.128388,151.474807 C107.545069,152.501098 109.160086,151.905596 109.946345,150.701922 C111.044273,149.035783 110.704269,146.343353 110.796354,143.606578 C110.888438,140.869802 111.745531,137.271449 114.656811,136.213483 C117.568092,135.155516 101,138.373761 101,138.373761 Z" id="Shape" fill="#4E5D6C"></path>
                                <path d="M105.163011,137.723848 L144.153246,128.107312 C144.153246,128.107312 149.116499,126.882533 145.935965,123.167818 C141.88433,118.457129 135.36795,112.797572 129.493079,111.478579 C122.973062,110.087723 116.173552,111.765634 111.05814,116.027759 C107.053774,119.432914 101.293699,128.181338 100.213263,132.945863 C99.5514959,135.87322 100.226768,138.948628 105.163011,137.723848 Z" id="Shape" fill="#1F2D3B"></path>
                                <path d="M36.524285,1.80224753 L54.9599815,0.00130666411 C56.0784183,-0.0188323248 57.1887672,0.194019291 58.2200754,0.626260025 C59.9320288,1.50953945 60.7284365,3.51740055 60.085873,5.33021006 C59.3718855,6.96987264 53.0470338,16.5860905 50.4268343,20.3156509 C50.1035192,20.7793259 49.3154387,21.9821932 51.3226866,21.8746743 L57.7485742,21.525238 C58.9542701,21.4580387 61.7428629,20.9070046 61.9381991,24.5156063 C62.1604782,28.5475634 61.8236916,29.7437107 60.261002,30.6307413 C58.6983123,31.5177719 40.2424087,32.9222369 39.0367128,32.9894362 C37.8310169,33.0566355 34.4833585,32.8550377 34.0859503,30.845779 C33.5268846,28.0637286 34.9683311,26.323267 36.524285,23.883933 L43.9335894,12.2248568 C43.9335894,12.2248568 44.6475769,10.5784743 43.0444729,10.6658334 L35.8102975,11.0555892 C34.9414236,11.1045103 34.0803625,10.8685101 33.3584913,10.3835964 C32.5097892,9.62424444 31.5331082,6.45915806 32.2470957,4.81277555 C32.9610832,3.16639304 33.7356923,2.32640196 36.524285,1.80224753 Z" id="Shape" fill="#2B3E50"></path>
                                <path d="M3.23603322,33.7310775 L17.5578075,31.0370808 C18.4307946,30.9423852 19.3140426,31.0295454 20.1513014,31.2930105 C21.5623469,31.8624767 22.3321931,33.3823482 21.9525269,34.8490862 C21.5056063,36.1960845 17.2124598,44.1231698 15.4450919,47.248206 C15.2284031,47.6321005 14.6934526,48.5952043 16.2576748,48.3998895 L21.2686029,47.6792454 C22.2098448,47.5445456 24.3564181,46.9114564 24.7694811,49.6997429 C25.2231732,52.8113091 25.0471136,53.7946179 23.8824114,54.5960819 C22.7177092,55.397546 8.35530573,57.828878 7.44792145,57.9433728 C6.54053717,58.0578677 3.87255652,58.1521576 3.41886438,56.5963745 C2.7891126,54.4613821 3.79129822,52.9998889 4.83411299,50.9793914 L9.82472654,41.3483532 C9.82472654,41.3483532 10.2716472,40.0013548 9.01891513,40.1966696 L3.34437761,41.0318086 C2.66008658,41.1374327 1.95989868,41.0142581 1.35354941,40.681589 C0.676396959,40.1495247 -0.332560189,37.7451326 0.107588902,36.4048693 C0.547737994,35.0646059 1.08945995,34.3574318 3.23603322,33.7310775 Z" id="Shape" fill="#2B3E50"></path>
                                <path d="M38.6970074,49.2277807 L50.6922664,47.0304059 C51.4233251,46.9527023 52.1631443,47.024335 52.8636402,47.2406486 C54.074362,47.693189 54.7376768,48.9530884 54.402575,50.1636996 C54.0301387,51.255605 50.4463179,57.7053069 48.9565728,60.2417827 C48.7668411,60.5537557 48.3171068,61.3608162 49.6592828,61.1777016 L53.8755426,60.5876658 C54.6625777,60.4791535 56.4615152,59.9637199 56.8058431,62.2424789 C57.1853065,64.7789548 57.0377374,65.5724512 56.1031331,66.2303072 C55.1685289,66.8881633 43.1029988,68.8278213 42.3159637,68.9431156 C41.5289285,69.05841 39.3153921,69.1194482 38.9359288,67.8715563 C38.4088963,66.1353589 39.2521482,64.9485053 40.1235086,63.3072562 L44.3046329,55.480804 C44.3046329,55.480804 44.6770691,54.3956807 43.6019229,54.5448851 L38.879712,55.2230872 C38.2811418,55.3188341 37.6667465,55.2084029 37.1440184,54.9111143 C36.5396878,54.4770649 35.7385984,52.5306249 36.0829263,51.4387196 C36.4272542,50.3468142 36.905097,49.7432143 38.6970074,49.2277807 Z" id="Shape" fill="#2B3E50"></path>
                            </g>
                        </g>
                    </g>
                </g>
            </g>
        </g>
    </g>
</svg>