<svg id="Layer_1" data-name="Layer 1" xmlns="http://www.w3.org/2000/svg" viewBox="0 0 311.87 322.83"><defs><style>.cls-1{fill:#fff;}.cls-2{fill:none;stroke:#fff;stroke-miterlimit:10;}</style></defs><title>Kairos logo v2</title><polygon class="cls-1" points="71.21 65.89 55.63 65.89 55.63 194.81 71.21 179.23 71.21 65.89"/><polygon class="cls-1" points="55.63 221 55.63 256.94 71.21 256.94 71.21 205.42 55.63 221"/><g id="_Group_" data-name="&lt;Group&gt;"><g id="_Group_2" data-name="&lt;Group&gt;"><polygon id="_Path_" data-name="&lt;Path&gt;" class="cls-1" points="147.64 161.05 159.48 149.21 242.8 65.89 267.08 65.89 267.08 66.76 172.06 161.79 267.08 256.81 267.08 256.94 242.06 256.94 146.9 161.79 147.64 161.05"/><polygon id="_Path_2" data-name="&lt;Path&gt;" class="cls-1" points="88.94 161.05 100.78 149.21 184.1 65.89 209.25 65.89 113.36 161.79 208.51 256.94 183.35 256.94 88.2 161.79 88.94 161.05"/></g></g><polygon class="cls-1" points="39.56 211.68 38.76 210.88 71.21 178.83 71.21 180.02 39.56 211.68"/><polygon class="cls-1" points="55.63 221.12 55.63 220.23 86.86 188.34 87.66 189.14 55.63 221.12"/><circle class="cls-2" cx="35.79" cy="214.92" r="5.25"/><circle class="cls-2" cx="90.85" cy="185.28" r="5.25"/></svg>
